<mxfile host="app.diagrams.net" agent="Mozilla/5.0 (iPad; CPU OS 19_0 like Mac OS X) AppleWebKit/605.1.15 (KHTML, like Gecko) Version/26.0 Mobile/15E148 Safari/604.1" version="28.0.7">
  <diagram name="Halaman-1" id="XCumHnsksSoLZMqQFJ0z">
    <mxGraphModel dx="1371" dy="745" grid="1" gridSize="10" guides="1" tooltips="1" connect="1" arrows="1" fold="1" page="1" pageScale="1" pageWidth="827" pageHeight="1169" math="0" shadow="0">
      <root>
        <mxCell id="0" />
        <mxCell id="1" parent="0" />
        <mxCell id="kOMqlTjNbs3dtm6_lZ07-2" style="edgeStyle=none;curved=1;rounded=0;orthogonalLoop=1;jettySize=auto;html=1;fontSize=12;startSize=8;endSize=8;" parent="1" source="kOMqlTjNbs3dtm6_lZ07-1" target="kOMqlTjNbs3dtm6_lZ07-3" edge="1">
          <mxGeometry relative="1" as="geometry">
            <mxPoint x="310" y="375" as="targetPoint" />
          </mxGeometry>
        </mxCell>
        <mxCell id="kOMqlTjNbs3dtm6_lZ07-1" value="Abcd" style="rounded=1;whiteSpace=wrap;html=1;arcSize=50;" parent="1" vertex="1">
          <mxGeometry x="90" y="330" width="130" height="90" as="geometry" />
        </mxCell>
        <mxCell id="kOMqlTjNbs3dtm6_lZ07-3" value="Efgh" style="ellipse;whiteSpace=wrap;html=1;" parent="1" vertex="1">
          <mxGeometry x="330" y="330" width="120" height="90" as="geometry" />
        </mxCell>
      </root>
    </mxGraphModel>
  </diagram>
</mxfile>
